<?xml version="1.0" encoding="utf-8"?>
<!-- Generator: Adobe Illustrator 24.2.3, SVG Export Plug-In . SVG Version: 6.00 Build 0)  -->
<svg version="1.1" id="Warstwa_1" xmlns="http://www.w3.org/2000/svg" xmlns:xlink="http://www.w3.org/1999/xlink" x="0px" y="0px"
	 viewBox="0 0 104 104" style="enable-background:new 0 0 104 104;" xml:space="preserve">
<style type="text/css">
	.st0{fill:currentColor;}
	.st1{fill:none;stroke:currentColor;stroke-width:7;stroke-miterlimit:10;}
</style>
<g>
	<g>
		<path class="st0" d="M34.71,70.98H8.29L6.5,64.55l1.17-1.14c8.24-8.05,12.24-13.7,12.24-17.26c0-1.27-0.72-1.91-2.14-1.91
			c-1.64,0-3.77,0.7-5.7,1.88l-4.2,2.57V35.53l1.52-0.76c2.86-1.43,6.34-2.25,9.54-2.25c8.32,0,13.91,5.01,13.91,12.47
			c0,4.32-2.83,9.57-7.03,14.89h8.9V70.98z"/>
	</g>
	<g>
		<path class="st0" d="M97.5,33.02H71.08l-1.79,6.44l1.17,1.14c8.24,8.05,12.24,13.69,12.24,17.26c0,1.27-0.72,1.91-2.14,1.91
			c-1.64,0-3.77-0.7-5.7-1.88l-4.2-2.57v13.16l1.52,0.76c2.86,1.43,6.34,2.25,9.54,2.25c8.32,0,13.91-5.01,13.91-12.47
			c0-4.32-2.83-9.57-7.03-14.89h8.9V33.02z"/>
	</g>
</g>
</svg>
