<?xml version="1.0" encoding="utf-8"?>
<!-- Generator: Adobe Illustrator 25.3.1, SVG Export Plug-In . SVG Version: 6.00 Build 0)  -->
<svg version="1.1" id="Layer_1" xmlns="http://www.w3.org/2000/svg" xmlns:xlink="http://www.w3.org/1999/xlink" x="0px" y="0px"
	 viewBox="0 0 48 48" style="enable-background:new 0 0 48 48;" xml:space="preserve">
<style type="text/css">
	.st0{fill:none;stroke:#000000;stroke-width:3;stroke-miterlimit:10;}
	.st1{fill:none;stroke:currentColor;stroke-width:3;stroke-miterlimit:10;}
</style>
<path class="st0" d="M6.9,23.9L6.9,23.9L6.9,23.9c9.4-13.3,24.6-13.3,34,0l0,0l0,0C31.5,37.3,16.3,37.3,6.9,23.9z"/>
<path class="st1" d="M6.9,23.9L6.9,23.9L6.9,23.9c9.4-13.3,24.6-13.3,34,0l0,0l0,0C31.5,37.3,16.3,37.3,6.9,23.9z"/>
<path class="str0" fill="none" stroke="#000000" stroke-width="3" stroke-miterlimit="10" d="M23.9,23.9l2.5-5.5c-0.8-0.3-1.6-0.5-2.5-0.5c-3.3,0-6,2.7-6,6s2.7,6,6,6s6-2.7,6-6c0-0.9-0.2-1.8-0.6-2.5L23.9,23.9z"/>
<path class="str0" fill="none" stroke="currentColor" stroke-width="3" stroke-miterlimit="10" d="M23.9,23.9l2.5-5.5c-0.8-0.3-1.6-0.5-2.5-0.5c-3.3,0-6,2.7-6,6s2.7,6,6,6s6-2.7,6-6c0-0.9-0.2-1.8-0.6-2.5L23.9,23.9z"/>
</svg>
