<?xml version="1.0" encoding="utf-8"?>
<!-- Generator: Adobe Illustrator 24.2.3, SVG Export Plug-In . SVG Version: 6.00 Build 0)  -->
<svg version="1.1" id="Warstwa_1" xmlns="http://www.w3.org/2000/svg" xmlns:xlink="http://www.w3.org/1999/xlink" x="0px" y="0px"
	 viewBox="0 0 104 104" style="enable-background:new 0 0 104 104;" xml:space="preserve">
<style type="text/css">
	.st0{fill:currentColor;}
	.st1{fill:none;stroke:currentColor;stroke-width:7;stroke-miterlimit:10;}
</style>
<g>
	<path class="st0" d="M28,35c2.76,0,5,2.24,5,5s-2.24,5-5,5s-5-2.24-5-5S25.24,35,28,35 M28,28c-6.63,0-12,5.37-12,12s5.37,12,12,12
		s12-5.37,12-12S34.63,28,28,28L28,28z"/>
</g>
<g>
	<path class="st0" d="M28,63c4.96,0,9,4.04,9,9v13H19V72C19,67.04,23.04,63,28,63 M28,56L28,56c-8.84,0-16,7.16-16,16v20h32V72
		C44,63.16,36.84,56,28,56L28,56z"/>
</g>
<line class="st1" x1="92" y1="24" x2="52" y2="24"/>
<line class="st1" x1="92" y1="40" x2="52" y2="40"/>
<line class="st1" x1="92" y1="56" x2="64" y2="56"/>
<line class="st1" x1="56" y1="52" x2="40" y2="68"/>
</svg>
