<?xml version="1.0" encoding="utf-8"?>
<!-- Generator: Adobe Illustrator 24.2.3, SVG Export Plug-In . SVG Version: 6.00 Build 0)  -->
<svg version="1.1" id="Warstwa_1" xmlns="http://www.w3.org/2000/svg" xmlns:xlink="http://www.w3.org/1999/xlink" x="0px" y="0px"
	 viewBox="0 0 104 104" style="enable-background:new 0 0 104 104;" xml:space="preserve">
<style type="text/css">
	.st0{fill:currentColor;}
	.st1{fill:none;stroke:currentColor;stroke-width:7;stroke-miterlimit:10;}
</style>
<g>
	<path class="st1" d="M71.78,83h-3.56C60.37,83,54,76.63,54,68.78V52.42c0-7.85,6.37-14.22,14.22-14.22h0h3.56
		C79.63,38.2,86,44.57,86,52.42v16.36C86,76.63,79.63,83,71.78,83z"/>
	<line class="st1" x1="70" y1="38.2" x2="70" y2="57.4"/>
	<line class="st1" x1="54" y1="57.4" x2="86" y2="57.4"/>
	<path class="st1" d="M70,39v-8c0-5.52-4.48-10-10-10H48c-5.52,0-10,4.48-10,10v42c0,5.52-4.48,10-10,10h0c-5.52,0-10-4.48-10-10V47
		"/>
</g>
</svg>
