<?xml version="1.0" encoding="utf-8"?>
<!-- Generator: Adobe Illustrator 24.2.3, SVG Export Plug-In . SVG Version: 6.00 Build 0)  -->
<svg version="1.1" id="Warstwa_1" xmlns="http://www.w3.org/2000/svg" xmlns:xlink="http://www.w3.org/1999/xlink" x="0px" y="0px"
	 viewBox="0 0 104 104" style="enable-background:new 0 0 104 104;" xml:space="preserve">
<style type="text/css">
	.st0{fill:currentColor;}
	.st1{fill:none;stroke:currentColor;stroke-width:7;stroke-miterlimit:10;}
</style>
<g>
	<path class="st0" d="M52,23.44c9.86,0,17.89,8.02,17.89,17.89v14.78c0,2.64,0.37,5.26,1.09,7.8l0.12,0.41l0.17,0.39l2.18,5.17
		H30.55l2.18-5.17l0.17-0.39l0.12-0.41c0.72-2.54,1.09-5.16,1.09-7.8V41.33C34.11,31.47,42.14,23.44,52,23.44 M52,16.44
		c-13.75,0-24.89,11.14-24.89,24.89v14.78c0,1.99-0.28,3.97-0.82,5.88L20,76.89h64l-6.29-14.9c-0.55-1.91-0.82-3.89-0.82-5.88V41.33
		C76.89,27.59,65.75,16.44,52,16.44L52,16.44z"/>
</g>
<g>
	<path class="st0" d="M52,86.06c-3.11,0-5.96-1.59-7.64-4.11h15.27C57.96,84.47,55.11,86.06,52,86.06z"/>
	<path class="st0" d="M55.96,83.44c-1.17,0.71-2.53,1.11-3.96,1.11s-2.79-0.4-3.96-1.11H55.96 M62.05,80.44H41.95
		c1.47,4.14,5.4,7.11,10.05,7.11S60.58,84.58,62.05,80.44L62.05,80.44z"/>
</g>
</svg>
